<svg width="1840" height="1380" viewBox="0 0 1840 1380" fill="none" xmlns="http://www.w3.org/2000/svg">
<path d="M790.8 436.4C789.2 432.133 778.933 407.333 751.333 396.267C724 385.467 699.867 396 692.933 399.467C674.133 408.8 664.8 423.733 662.133 428.133C644.533 456.933 642.4 504.933 663.333 528.933C678 545.867 704.8 552 977.467 485.867C977.467 485.867 1002.8 479.733 1069.33 455.733C1134.8 432.133 1142.4 424.8 1145.73 416.133C1159.07 381.467 1112.13 306.533 1059.33 314.667C1030.13 319.067 1004.8 348 996.933 385.6C994.8 380.933 991.2 374.133 985.067 367.467C970.933 351.867 953.467 347.2 941.333 344.133C934.667 342.4 886.267 330.933 839.6 358C830.667 363.2 818.8 370.267 808.4 384.4C793.067 404.667 791.067 426.533 790.8 436.4Z" fill="#067BBB"/>
<path d="M745.2 888.4C744.666 885.066 731.066 810.8 676.8 793.733C655.6 787.067 634.8 791.067 624.8 793.2C546.4 810 521.2 863.2 538 964C554.8 1064.8 1226.8 1062 1282.8 1022.8C1338.8 983.6 1277.2 784.8 1176.4 807.2C1075.6 829.6 1064.4 919.2 1064.4 919.2C1064.27 906.933 1062.27 849.067 1016.8 807.2C987.6 780.267 954.933 773.467 941.2 770.8C885.066 759.867 840.8 781.467 829.2 787.6C769.2 819.333 749.2 876 745.2 888.4Z" fill="#067BBB"/>
<path d="M637.066 646.933C628.933 627.067 612 614 594.266 613.867C574.133 613.6 561.2 629.733 558.533 633.067C542 653.6 538.4 689.733 553.466 711.733C567.866 732.533 590.133 727.333 746 734C746 734 771.6 735.067 824.8 730.133C867.6 726.133 875.733 722.267 882 716.133C904.266 694.4 901.6 645.2 879.333 628.533C875.066 625.333 866.533 620.667 855.866 620.4C844.133 620 835.6 624.8 830.133 627.867C807.466 640.933 798.666 665.2 796 673.6C796 673.6 793.733 646.667 771.866 626.667C769.2 624.267 757.6 613.867 738.933 608.933C707.6 600.667 681.066 614.133 671.866 618.8C656.266 626.8 644.933 637.333 637.066 646.933Z" fill="#067BBB"/>
<path d="M1034.4 589.867C1034 568.667 1023.2 550.133 1006.4 543.067C985.466 534.267 964.666 547.6 956.4 552.8C950.933 556.267 939.733 563.333 933.066 577.2C921.466 601.467 932.533 626.933 934.8 632C934.8 632 936.533 636.8 939.333 640.533C952 657.333 986.933 663.2 1119.33 704.4C1119.33 704.4 1144.27 712.133 1198.27 721.2C1226.53 725.867 1241.33 729.333 1258.53 722.4C1263.47 720.4 1282 712.4 1291.6 691.867C1293.07 688.667 1303.87 664.667 1291.2 641.2C1282.8 625.733 1268.93 619.333 1263.87 617.2C1259.87 615.467 1244.53 608.933 1226.53 613.467C1195.07 621.467 1184.93 656.267 1184.53 657.867C1184.93 653.333 1185.07 646.8 1184.53 639.067C1184 631.467 1183.07 618.8 1177.73 606.667C1169.73 588.133 1154.93 578.267 1149.47 574.667C1121.33 556.267 1090.4 561.733 1080.27 564C1057.2 569.6 1041.73 582.533 1034.4 589.867Z" fill="#067BBB"/>
</svg>
