<svg width="1840" height="1380" viewBox="0 0 1840 1380" fill="none" xmlns="http://www.w3.org/2000/svg">
<path d="M1300.67 925.733C1295.47 926.533 1280.93 930.133 1261.47 935.2C1261.6 918 1262.13 897.867 1263.2 874.4C1267.33 776.133 1225.6 673.6 1194.13 577.333C1162.8 481.067 1068.67 460.267 957.734 460.267C846.801 460.267 769.601 529.333 732.001 562.8C694.401 596.267 648.401 671.6 608.534 803.333C578.934 901.6 571.334 962.667 569.468 987.333C554.268 988.533 541.068 988.933 532.401 987.867C507.601 984.8 555.734 720.933 665.868 576.533C776.001 432.133 1047.73 365.067 1147.07 453.733C1246.4 542.4 1305.33 696.133 1308.53 804.667C1311.6 913.333 1322.4 922.667 1300.67 925.733Z" fill="#E5AE00"/>
<path d="M1263.33 874.4C1262.4 897.733 1261.87 918 1261.6 935.2C1250 938.133 1236.67 941.6 1222.8 945.2C1215.73 883.2 1196 756.667 1188.67 717.067C1178.93 664.4 1160.93 555.067 1087.6 505.333C1014.27 455.467 850.933 516.4 784.4 567.6C718 618.8 675.067 748.933 652.933 816.8C633.867 874.933 621.067 959.733 617.733 982.667C601.733 984.4 584.667 986.4 569.467 987.467C571.333 962.8 578.933 901.733 608.533 803.467C648.267 671.733 694.267 596.4 732 562.933C769.6 529.467 847.067 460.4 957.867 460.4C1068.67 460.4 1162.8 481.333 1194.27 577.467C1225.6 673.6 1267.47 776.133 1263.33 874.4Z" fill="#FF0098"/>
<path d="M1156.27 888.4C1164.4 784.133 1127.87 693.333 1123.73 646C1119.73 598.533 1066.8 543.067 997.734 525.467C928.668 507.867 878.534 564.8 808.134 618.933C737.734 673.067 707.868 809.867 691.601 858.667C678.801 897.067 669.334 954.667 666.001 977.467C662.268 977.867 658.668 978.133 655.068 978.533C644.668 979.467 631.601 980.933 617.734 982.533C621.068 959.6 633.868 874.8 652.934 816.667C675.068 748.8 718.001 618.667 784.401 567.467C850.801 516.267 1014.13 455.333 1087.6 505.2C1160.93 555.067 1178.93 664.4 1188.67 716.933C1196 756.533 1215.73 883.067 1222.8 945.067C1198.8 951.2 1172.93 957.6 1150.4 962.533C1152 942.4 1153.87 917.867 1156.27 888.4Z" fill="#004031"/>
<path d="M1156.27 888.4C1154 917.733 1152 942.4 1150.4 962.667C1115.73 970.133 1089.2 974.133 1089.73 967.6C1091.33 950.533 1126.93 699.067 1032.27 599.733C937.6 500.4 785.467 703.733 757.6 837.2C729.6 970.667 729.6 970.667 729.6 970.667C729.6 970.667 697.333 974.4 666 977.467C669.467 954.667 678.8 896.933 691.6 858.667C707.867 809.867 737.6 673.067 808.133 618.933C878.533 564.8 928.667 507.867 997.733 525.467C1066.8 543.067 1119.6 598.667 1123.73 646C1127.73 693.467 1164.4 784.133 1156.27 888.4Z" fill="#60772F"/>
<path d="M1043.07 765.2C1043.07 765.2 1038.67 704 990.8 711.867C943.067 719.6 925.2 783.067 925.2 783.067C925.2 783.067 915.2 741.2 876.267 747.2C837.333 753.2 811.733 842 849.6 857.6C887.333 873.2 1236.4 888.667 1240.93 803.067C1242.13 781.2 1236 751.6 1216 741.333C1193.6 729.867 1158.4 743.2 1127.47 775.2C1127.73 772 1129.33 749.733 1112.93 734.533C1110.8 732.533 1102.8 725.2 1091.87 724C1073.47 722 1052.8 738.4 1043.07 765.2Z" fill="#FF73C6"/>
<path d="M818.534 931.733C817.201 928.267 808.534 906.133 785.201 897.867C783.334 897.2 751.868 886.667 733.601 907.2C720.001 922.4 724.001 943.2 724.534 946C724.534 946 722.534 937.6 716.668 929.867C706.001 915.867 687.868 917.2 685.468 917.333C665.868 918.4 654.668 934.267 652.534 937.2C640.801 953.733 638.934 978.8 650.534 992.933C663.201 1008.27 688.534 1006.27 700.534 1005.33C903.734 989.467 966.268 997.067 976.668 962C982.001 944.267 972.668 919.467 956.801 912.8C942.268 906.667 921.734 915.333 904.934 933.867C904.668 931.467 902.801 913.467 886.801 903.067C871.734 893.333 855.734 897.867 851.868 899.067C828.001 905.6 819.468 929.067 818.534 931.733Z" fill="#FF73C6"/>
</svg>
