<svg width="1840" height="1380" viewBox="0 0 1840 1380" fill="none" xmlns="http://www.w3.org/2000/svg">
<path d="M1298.13 586.133C1253.07 573.733 1209.47 597.067 1156.67 565.867C1103.87 534.8 1229.73 424.4 1217.33 410.4C1204.93 396.4 1119.33 486.533 1030.8 471.067C942.133 455.467 993.466 356 976.4 334.267C959.333 312.533 897.066 477.333 844.266 471.067C791.466 464.8 777.466 390.267 746.266 374.667C744 373.6 742.4 373.333 740.666 373.733C717.6 379.867 766 514.267 717.066 552.933C687.733 576.133 606.266 578.533 592.4 578.4C587.866 578.4 572.933 577.867 565.6 587.333C565.066 588.133 561.466 592.667 561.733 597.733C562.133 611.467 589.2 616.8 627.2 636.4C676.4 661.733 682.4 679.2 684 686.933C685.066 692 685.6 697.333 684 704C671.466 756.133 581.866 814.8 589.2 829.867C590.133 831.867 593.2 834.133 609.466 832.933C675.2 828.4 706.4 785.067 739.2 796.8C754.133 802.133 761.466 816.133 761.866 816.8C779.6 851.6 733.866 902.267 744 955.6C744.8 959.733 745.733 962.8 748.133 963.867C764.4 971.067 803.866 867.733 856.666 870C870 870.533 880 877.733 882.666 879.867C900.933 893.6 906.933 919.2 916.533 962.8C920.8 982.267 923.466 999.2 934.4 1002.53C939.733 1004.27 944.933 1001.87 946.4 1001.2C963.866 993.067 959.866 964 970.933 926.267C979.6 896.933 985.733 875.867 1001.33 870.133C1031.6 859.067 1092.8 909.067 1109.07 943.2C1111.2 947.6 1118.13 963.333 1126.4 962.8C1130.8 962.533 1134 957.867 1135.07 956.133C1150.93 931.867 1115.6 840.667 1144.4 811.067C1195.73 758.267 1292.13 812.667 1285.87 778.4C1279.6 744.133 1192.53 719.333 1195.73 680.4C1198.93 641.467 1343.2 598.533 1298.13 586.133ZM1148.67 678C1146.93 731.867 1118.8 768.133 1110.8 778C1071.2 827.6 996 843.333 991.866 844.267C902.4 862.4 832.4 820.267 820 812.533C804.133 802.667 778.666 786.267 758 754.8C754.4 749.333 707.333 674.8 739.333 593.733C743.866 582.133 755.333 557.2 779.6 534.533C839.2 478.933 926.4 487.333 946.533 489.333C963.733 490.933 1082.27 504.133 1129.73 595.6C1149.6 633.867 1148.93 670.267 1148.67 678Z" fill="#BC2B55"/>
<path d="M1148.67 678C1146.93 731.867 1118.8 768.133 1110.8 778C1071.2 827.6 996.001 843.333 991.867 844.267C902.401 862.4 832.401 820.267 820.001 812.533C804.134 802.667 778.667 786.267 758.001 754.8C754.401 749.333 707.334 674.8 739.334 593.733C743.867 582.133 755.334 557.2 779.601 534.533C839.201 478.933 926.401 487.333 946.534 489.333C963.734 490.933 1082.27 504.133 1129.73 595.6C1149.6 633.867 1148.93 670.267 1148.67 678Z" fill="#FFB000"/>
<path d="M797.6 601.867C797.6 601.867 799.466 625.2 836.666 642.8C873.866 660.533 922.8 597.2 922.8 597.2L911.2 592.533C911.2 592.533 888.8 623.333 876.666 627.867C864.533 632.533 835.733 638.4 822.666 619.2C809.6 600 809.6 600 809.6 600L797.6 601.867Z" fill="#374993"/>
<path d="M1070.93 601.867C1069.73 605.467 1060 633.467 1031.87 642.8C1012.67 649.2 996.133 643.333 989.466 640.933C960 630 948 602.933 945.6 597.2C948.533 596 951.466 594.8 954.4 593.733C955.866 597.6 965.6 621.867 991.466 631.2C996.133 632.8 1019.87 641.333 1040.13 627.2C1053.07 618.267 1057.47 604.933 1058.8 600L1070.93 601.867Z" fill="#374993"/>
<path d="M777.866 677.467C777.866 677.467 846.133 765.867 938.399 752.667C1030.8 739.6 1070.8 668.267 1070.8 668.267L1078.93 672.667C1078.93 672.667 1060.27 710 1036.67 726.8C1013.07 743.467 972.533 765.2 945.6 767.067C918.666 769.067 851.733 760.133 820.266 729.733C788.799 699.2 770.133 681.6 770.133 681.6L777.866 677.467Z" fill="#EE5F9D"/>
<path d="M966.532 664.4C965.866 678.533 944.266 688.133 927.866 688.8C913.066 689.467 892.132 683.2 889.999 670.8C887.866 658.4 905.732 646 918.132 641.467C922.532 639.867 936.399 634.933 949.999 642.267C956.532 645.733 967.066 654.133 966.532 664.4Z" fill="#BC2B55"/>
<path d="M653.067 475.333C653.067 475.333 664.267 454.533 682.667 452.933C688.133 452.4 699.067 448.533 709.067 454.4C714.667 457.733 717.467 462.4 719.467 465.867C720.8 468.133 729.733 483.867 723.6 493.6C719.6 500 710.933 501.2 707.467 501.733C677.067 506.533 537.067 528.133 532.267 508.133C527.467 488.133 532.933 475.333 555.333 471.333C577.733 467.333 588.133 487.733 588.133 487.733C588.133 487.733 592.133 462.533 609.733 451.733C627.467 440.933 653.067 452.133 653.067 475.333Z" fill="#374993"/>
<path d="M1206.53 1006.93C1208.8 1003.73 1224.27 982.267 1251.33 980.267C1255.6 980 1272.27 978.933 1287.47 990C1290.8 992.533 1298.53 998.267 1302.93 1008.93C1307.6 1020.4 1308.27 1037.33 1299.2 1046.67C1291.6 1054.53 1279.87 1054.4 1275.47 1054.4C1120.67 1053.33 1047.2 1062.4 1034.8 1026.4C1031.2 1015.87 1032.53 1000.8 1040.13 990.4C1051.6 974.8 1073.87 974 1077.33 973.867C1080.93 973.867 1087.47 973.733 1094.67 977.2C1101.2 980.267 1104.93 984.667 1105.87 985.6C1114.4 995.6 1115.73 1010.13 1115.73 1010.13C1119.33 988.533 1133.6 970.933 1152.8 965.467C1171.6 960.133 1197.87 965.6 1206 983.467C1209.73 992.533 1208 1001.73 1206.53 1006.93Z" fill="#374993"/>
</svg>
