<svg width="1840" height="1380" viewBox="0 0 1840 1380" fill="none" xmlns="http://www.w3.org/2000/svg">
<path d="M951.867 1073.2C934.401 1092.13 725.467 1081.73 694.001 1084.13C674.934 1085.6 675.067 1036.8 678.001 998.267C758.001 1036.53 865.067 1037.47 951.734 996.667C957.334 1026.53 961.601 1062.67 951.867 1073.2Z" fill="#02C961"/>
<path d="M1098.93 624.134C1096.8 584.934 1091.33 559.6 1072.53 541.334C1042.27 511.867 1003.47 525.6 879.734 527.334C831.067 528 755.201 527.067 706.401 526C619.067 524.134 579.201 521.2 556.001 548.934C547.867 558.8 544.001 570 539.601 612.667C532.134 684.934 528.534 721.067 535.734 768.134C541.467 805.334 555.734 897.6 618.667 957.867C635.734 974.133 655.867 987.733 678.134 998.4C758.134 1036.67 865.201 1037.6 951.867 996.8C979.334 983.867 1004.67 966.8 1026.4 945.333C1111.87 861.2 1105.6 746.8 1098.93 624.134Z" fill="#3700ED"/>
<path d="M1286.93 753.6C1271.2 776.267 1246.93 797.067 1112.13 856.4C1096 863.467 1072.4 873.6 1055.6 863.067C1054.13 862.133 1040.93 853.6 1040.8 838.4C1040.67 824.133 1052.27 815.333 1053.73 814.4C1059.47 811.733 1066.13 808.667 1073.47 805.6C1077.47 804 1083.73 801.467 1091.33 798.667C1102.27 794.667 1110.67 792.134 1112.27 791.6C1165.07 774.534 1200.67 763.067 1222.27 729.467C1235.33 709.2 1253.73 670.8 1236.93 644.8C1218.13 615.6 1166.27 618.667 1160.53 619.067C1146.8 620 1133.6 623.734 1133.6 623.734C1119.07 627.867 1082.4 641.067 1077.73 638.134C1076.4 637.2 1075.07 636.134 1075.07 636.134C1075.07 636.134 1073.33 634.667 1071.87 632.934C1064 623.6 1062.8 603.067 1062.8 603.067C1062.53 599.334 1062.27 593.733 1062.93 590.667C1067.6 569.333 1148.67 547.734 1219.07 576.134C1233.33 581.867 1290 604.8 1304.67 657.333C1312.8 686.4 1305.33 714.934 1304.67 717.334C1302 726 1297.47 738.4 1286.93 753.6Z" fill="#F7B832"/>
<path d="M670.135 494.534C670.135 494.534 626.401 456 649.201 414.134C672.001 372.267 719.201 345.867 682.401 310.934L695.868 295.2C695.868 295.2 708.535 306.134 713.868 328.667C719.068 351.2 710.401 382.534 692.935 397.467C675.468 412.4 650.935 419.334 661.468 438.534C672.001 457.734 698.135 482.267 698.135 482.267L670.135 494.534Z" fill="#F7B832"/>
<path d="M808.268 494.534C779.468 450.4 780.001 427.2 787.334 414.134C798.001 394.8 823.868 395.334 833.201 368.8C839.068 352.267 834.401 336 833.868 334.134C830.534 322.667 824.268 314.934 820.534 310.934L834.001 295.2C834.001 295.2 846.668 306.134 852.001 328.667C857.201 351.2 848.534 382.534 831.068 397.467C817.201 409.334 798.934 416.134 797.201 428C796.534 432.134 798.134 435.467 799.601 438.534C804.134 448.934 812.134 465.334 825.468 487.067C819.734 489.6 814.001 492 808.268 494.534Z" fill="#F7B832"/>
<path d="M958.535 489.334C922.668 448.667 920.135 426.667 925.601 414.134C933.068 396.934 955.468 396.8 965.068 371.067C970.935 355.067 968.401 338.8 967.735 335.2C965.868 324.267 961.868 316.134 958.801 310.934L972.268 295.2C972.268 295.2 984.935 306.134 990.268 328.667C994.535 346.8 989.601 377.867 969.335 397.467C955.735 410.534 941.068 412.934 939.468 425.867C938.935 430.267 940.135 434.134 943.335 440.534C948.268 450.534 957.335 465.734 974.668 482.267C969.201 484.667 963.868 486.934 958.535 489.334Z" fill="#F7B832"/>
<path d="M810.935 687.2C810.935 687.2 810.401 602.934 708.001 631.067C605.601 659.2 682.401 751.334 708.001 784.667C733.601 818 810.935 892 810.935 892C810.935 892 917.868 806.8 963.868 756C1009.87 705.2 951.068 587.467 904.935 602.8C858.935 618.267 810.935 687.2 810.935 687.2Z" fill="#FF739E"/>
</svg>
