<svg width="1840" height="1380" viewBox="0 0 1840 1380" fill="none" xmlns="http://www.w3.org/2000/svg">
<path d="M1308 768.667C1308 769.6 1308 770.4 1308 771.333C1308 772.267 1308 773.2 1308 774C1308 775.867 1308 777.733 1308 779.6C1307.87 785.333 1307.87 791.333 1307.73 797.6C1307.73 799.467 1307.6 801.333 1307.6 803.333C1307.47 808.933 1307.33 814.533 1307.2 820.4C1307.2 821.467 1307.2 822.667 1307.07 823.733C1306.93 827.333 1306.93 831.067 1306.8 834.8C1306.8 836.533 1306.67 838.267 1306.67 840.133C1306.4 847.467 1306.27 855.067 1306 862.667C1305.87 864.667 1305.87 866.8 1305.73 868.8C1305.6 870.933 1305.6 873.067 1305.47 875.333C1305.2 882 1305.07 888.667 1304.8 895.333C1304.67 898.4 1304.53 901.6 1304.4 904.667C1304.27 909.333 1304 914 1303.87 918.8C1303.73 922.8 1303.6 926.667 1303.47 930.667C1303.47 931.333 1303.47 932 1303.33 932.667C1303.2 937.333 1302.93 941.867 1302.8 946.4V946.533C1302.67 949.467 1302.53 952.4 1302.4 955.333C1302.4 955.6 1302.4 955.733 1302.4 955.867C1302.27 958.667 1302.13 961.333 1302 964.133C1302 964.4 1302 964.8 1302 965.067C1301.87 967.067 1301.87 969.067 1301.73 971.067C1301.73 972.133 1301.6 973.2 1301.6 974.267C1301.2 983.067 1300.8 991.6 1300.53 999.733C1300.53 1000.27 1300.53 1000.8 1300.4 1001.33C1300.4 1002.53 1300.27 1003.87 1300.27 1005.07V1005.2C1300.13 1007.73 1300 1010.27 1299.87 1012.67C1299.73 1014.4 1299.73 1016.13 1299.6 1017.87C1299.6 1018.53 1299.47 1019.2 1299.47 1019.73C1299.33 1022.67 1299.2 1025.47 1299.07 1028.13C1299.07 1029.07 1298.93 1030 1298.93 1030.93C1298.93 1031.6 1298.8 1032.27 1298.8 1032.93C1298.67 1034.4 1298.67 1035.87 1298.53 1037.2C1298.27 1041.87 1298.13 1046 1298 1049.87C1298 1050.67 1297.87 1051.47 1297.87 1052.27C1297.87 1053.6 1297.73 1054.93 1297.73 1056.13C1297.73 1056.67 1297.73 1057.2 1297.6 1057.6C1297.6 1058 1297.6 1058.4 1297.47 1058.93C1297.47 1059.33 1297.47 1059.6 1297.47 1060C1297.33 1061.33 1297.33 1062.53 1297.33 1063.73C1297.33 1064.53 1297.2 1065.33 1297.2 1066.13C1297.2 1066.27 1297.2 1066.4 1297.2 1066.53C1297.2 1066.8 1297.2 1067.07 1297.2 1067.33C1297.2 1067.47 1297.2 1067.6 1297.2 1067.73C1297.2 1068.13 1297.2 1068.53 1297.2 1068.8C1297.07 1070.8 1297.07 1072.27 1296.93 1073.07C1296.93 1073.2 1296.93 1073.2 1296.93 1073.33C1296.93 1073.6 1296.93 1073.87 1296.93 1073.87C1296.93 1073.87 924 1072.53 830.8 1073.87C737.6 1075.2 532 1063.07 532 1063.07C536.133 979.6 542 909.867 547.067 858.8C550.8 820.8 554.533 788.133 558.267 760C560.133 745.467 562.133 732 564 719.733C576.267 642 588 606.933 598.4 580.133C616.533 533.6 634 490 674.4 445.467C730.667 383.333 802.4 351.467 821.6 343.467C821.733 343.333 823.6 342.667 825.467 341.867C827.067 341.2 828.8 340.533 830.8 339.733C831.733 339.333 832.8 338.933 833.867 338.533C834.933 338.133 836 337.733 837.067 337.333C839.867 336.267 842.933 335.2 846.133 334C848.133 333.333 850.133 332.533 852.267 331.867C852.933 331.6 853.733 331.333 854.4 331.2C858 330 861.867 328.667 865.867 327.467C869.067 326.4 872.4 325.467 875.867 324.4C883.733 322.133 892.133 319.867 900.933 317.867C904.933 316.933 908.933 316 913.067 315.2C941.467 309.333 974.133 305.2 1008.67 306.133C1027.73 306.533 1047.2 308.533 1066.93 312.4H1067.07C1070 312.933 1073.07 313.6 1076 314.267C1079.07 314.933 1082 315.733 1085.07 316.533C1086.53 316.933 1087.87 317.333 1089.33 317.733C1089.6 317.733 1089.73 317.867 1089.87 317.867C1095.87 319.6 1101.87 321.467 1107.73 323.6C1110.8 324.667 1113.73 325.733 1116.8 326.933H1116.93C1118.4 327.467 1119.87 328.133 1121.33 328.667C1122.8 329.333 1124.27 329.867 1125.73 330.533C1125.87 330.533 1125.87 330.533 1125.87 330.667C1127.33 331.333 1128.8 332 1130.27 332.667C1131.73 333.333 1133.33 334 1134.8 334.8C1134.93 334.8 1135.07 334.933 1135.07 334.933C1138 336.267 1140.8 337.733 1143.73 339.2C1144.67 339.733 1145.6 340.133 1146.53 340.667C1148 341.467 1149.6 342.267 1151.07 343.2C1151.73 343.6 1152.53 344 1153.2 344.4C1154 344.933 1154.93 345.333 1155.73 345.867C1156.53 346.4 1157.47 346.933 1158.27 347.333C1160.8 348.8 1163.33 350.4 1165.87 352.133C1220.67 387.6 1249.2 433.333 1261.2 452.933C1265.33 459.733 1269.33 466.8 1273.2 475.2C1286.67 504.133 1298.27 546.933 1304 633.6C1304.13 635.067 1304.13 636.533 1304.27 637.867C1304.8 646.267 1305.33 655.067 1305.73 664.267C1306.93 691.067 1307.73 721.333 1307.87 756C1308 759.867 1308 764.133 1308 768.667Z" fill="#DDD9C9"/>
<path d="M1304.13 633.467C1282.13 647.067 1251.33 662.533 1214.93 678.133C1141.33 710 1045.07 743.067 954.8 764.8C944.267 767.333 933.733 769.733 923.333 771.867C804.133 797.2 701.733 799.2 685.867 746.933C685.6 746.133 685.467 745.333 685.2 744.533C682.133 732 680.267 720 679.467 708.8C671.333 595.333 771.867 549.067 816.8 567.2C866.133 587.2 891.2 652.267 891.2 652.267C891.6 643.867 895.6 589.333 941.067 556.667C945.333 553.6 954.533 547.067 967.333 542.267C976.267 538.8 986.8 536.133 998.533 535.867C1000.8 535.867 1003.07 535.867 1005.47 536C1046.53 538.267 1083.87 569.867 1101.33 615.6C1100.8 613.2 1078.4 505.733 1162.27 453.6C1177.6 444 1193.2 440.8 1208.53 442.267C1231.6 444.4 1253.87 457.333 1273.47 475.333C1286.93 504.133 1298.4 546.933 1304.13 633.467Z" fill="#067BBB"/>
<path d="M1308 755.867C1307.87 721.333 1307.07 690.933 1305.87 664.133C1305.47 654.933 1304.93 646.133 1304.4 637.733C1304.27 636.267 1304.27 634.8 1304.13 633.467C1298.4 546.933 1286.8 504 1273.33 475.067C1269.47 466.667 1265.47 459.6 1261.33 452.8C1249.47 433.2 1220.93 387.467 1166 352C1163.47 350.4 1160.93 348.8 1158.4 347.2C1157.6 346.667 1156.67 346.133 1155.87 345.733C1155.07 345.2 1154.13 344.667 1153.33 344.267C1152.67 343.867 1151.87 343.467 1151.2 343.067C1149.73 342.267 1148.13 341.333 1146.67 340.533C1145.73 340 1144.8 339.467 1143.87 339.067C1141.07 337.6 1138.13 336.133 1135.2 334.8C1135.07 334.8 1134.93 334.667 1134.93 334.667C1133.47 334 1132 333.2 1130.4 332.533C1128.93 331.867 1127.47 331.2 1126 330.533C1126 330.533 1125.87 330.533 1125.87 330.4C1124.4 329.733 1122.93 329.2 1121.47 328.533C1120 327.867 1118.53 327.333 1117.07 326.8H1116.93C1113.87 325.6 1110.93 324.533 1107.87 323.467C1101.87 321.333 1095.87 319.467 1090 317.733C1089.87 317.733 1089.6 317.6 1089.47 317.6C1088 317.2 1086.67 316.8 1085.2 316.4C1082.13 315.6 1079.2 314.8 1076.13 314.133C1073.2 313.467 1070.13 312.8 1067.2 312.267H1067.07C1047.33 308.267 1027.87 306.4 1008.8 306C974.267 305.2 941.6 309.333 913.2 315.067C909.067 315.867 904.934 316.8 901.067 317.733C892.134 319.867 883.734 322 876 324.267C872.534 325.333 869.2 326.267 866 327.333C862 328.533 858.134 329.867 854.534 331.067C853.867 331.333 853.067 331.6 852.4 331.733C850.267 332.4 848.267 333.2 846.267 333.867C842.934 335.067 840 336.133 837.2 337.2C836.134 337.6 834.934 338 834 338.4C832.934 338.8 832 339.2 830.934 339.6C829.067 340.4 827.2 341.067 825.6 341.733C823.734 342.533 822 343.2 821.734 343.333C802.534 351.333 730.934 383.2 674.534 445.333C634.134 489.867 616.667 533.467 598.534 580C588 606.933 576.267 642 564.134 719.733C562.267 732 560.267 745.467 558.4 760C554.667 788.133 550.934 820.667 547.2 858.8C542.134 909.867 536.267 979.6 532.134 1063.07C532.134 1063.07 737.734 1075.47 831.067 1074C924.4 1072.53 1297.2 1074 1297.2 1074C1297.2 1074 1297.2 1073.87 1297.2 1073.47C1297.2 1073.33 1297.2 1073.33 1297.2 1073.2C1297.2 1072.4 1297.33 1070.93 1297.47 1068.93C1297.47 1068.53 1297.47 1068.27 1297.47 1067.87C1297.47 1067.73 1297.47 1067.6 1297.47 1067.47C1297.47 1067.2 1297.47 1066.93 1297.47 1066.67C1297.47 1066.53 1297.47 1066.4 1297.47 1066.27C1297.47 1065.47 1297.6 1064.8 1297.6 1063.87C1297.6 1062.67 1297.73 1061.47 1297.73 1060.13C1297.73 1059.87 1297.73 1059.47 1297.73 1059.07C1297.73 1058.67 1297.73 1058.27 1297.87 1057.73C1297.87 1057.2 1297.87 1056.8 1298 1056.27C1298 1055.07 1298.13 1053.73 1298.13 1052.4C1298.13 1051.6 1298.27 1050.8 1298.27 1050C1298.4 1046.13 1298.67 1041.87 1298.8 1037.33C1298.93 1036 1298.93 1034.53 1299.07 1033.07C1299.07 1032.4 1299.2 1031.73 1299.2 1031.07C1299.2 1030.13 1299.33 1029.2 1299.33 1028.27C1299.47 1025.6 1299.6 1022.8 1299.73 1019.87C1299.73 1019.2 1299.73 1018.53 1299.87 1018C1300 1016.27 1300 1014.53 1300.13 1012.8C1300.27 1010.4 1300.4 1007.87 1300.53 1005.33V1005.2C1300.53 1004 1300.67 1002.67 1300.67 1001.47C1300.67 1000.93 1300.67 1000.4 1300.8 999.867C1301.2 991.733 1301.6 983.2 1301.87 974.4C1301.87 973.333 1302 972.267 1302 971.2C1302.13 969.2 1302.13 967.2 1302.27 965.2C1302.27 964.933 1302.27 964.533 1302.27 964.267C1302.4 961.6 1302.53 958.8 1302.67 956C1302.67 955.867 1302.67 955.6 1302.67 955.467C1302.8 952.533 1302.93 949.6 1303.07 946.667V946.533C1303.2 942 1303.47 937.467 1303.6 932.8C1303.6 932.133 1303.6 931.467 1303.73 930.8C1303.87 926.8 1304 922.933 1304.13 918.933C1304.27 914.267 1304.53 909.6 1304.67 904.8C1304.8 901.733 1304.93 898.533 1305.07 895.467C1305.33 888.8 1305.6 882.133 1305.73 875.467C1305.87 873.333 1305.87 871.2 1306 868.933C1306.13 866.933 1306.13 864.8 1306.27 862.8C1306.53 855.2 1306.8 847.733 1306.93 840.267C1306.93 838.533 1307.07 836.667 1307.07 834.933C1307.2 831.2 1307.33 827.467 1307.33 823.867C1307.33 822.667 1307.33 821.6 1307.47 820.533C1307.6 814.667 1307.73 808.933 1307.87 803.467C1307.87 801.6 1308 799.6 1308 797.733C1308.13 791.467 1308.27 785.467 1308.27 779.733C1308.27 777.867 1308.27 776 1308.27 774.133C1308.27 773.2 1308.27 772.267 1308.27 771.467C1308.27 770.533 1308.27 769.733 1308.27 768.8C1308 764.133 1308 759.867 1308 755.867ZM1041.2 345.867C1058.53 348.4 1076.27 352.667 1093.73 358.933C1098.27 360.533 1102.8 362.4 1107.47 364.267C1120.27 369.733 1132.93 376.4 1145.47 384.4C1173.73 402.667 1194.27 423.867 1208.67 442.133C1219.6 455.867 1227.07 468 1231.6 475.6C1248.4 503.333 1264.13 539.2 1270.67 643.6C1221.07 651.867 1167.73 659.733 1141.33 660.933C1110.8 662.267 1041.47 669.867 973.334 677.733C983.6 628 992.134 584.533 994 565.6C994.8 558.133 996.4 547.867 998.667 535.733C1006.27 494.533 1020.8 431.733 1031.73 385.867C1035.33 370 1038.8 356.133 1041.2 345.867ZM631.867 590.667C648.267 548.533 664.134 509.2 700.667 468.933C751.6 412.667 816.4 383.867 833.734 376.667C833.867 376.533 835.6 375.867 837.2 375.2C861.867 365.067 931.067 339.6 1009.47 342.933C1007.6 351.6 1004.93 363.467 1001.87 377.467C995.067 408.267 986.267 448.933 978.267 486.8C974.4 505.333 970.667 523.867 967.2 542.133C957.6 592.267 949.334 640.533 941.067 681.333C893.2 686.933 849.2 692 824 694.667C823.6 694.667 823.067 694.8 822.667 694.8C796 697.6 739.067 702.933 679.467 708.667C653.067 711.2 626.134 713.733 601.067 716.133C611.867 646.4 622.534 614.8 631.867 590.667ZM869.2 1037.07C863.867 1037.07 858.934 1037.2 854.4 1037.2C849.867 1037.2 845.734 1037.33 842.134 1037.33C757.867 1038.53 571.867 1027.47 571.867 1027.47C575.6 952 580.934 888.933 585.467 842.667C588.667 809.733 592 781.2 595.2 756.533C626.667 753.467 659.867 750.133 685.867 746.933C701.734 745.067 714.934 743.2 723.467 741.6C738.534 738.8 768.8 734.8 804.534 730.533C845.467 725.6 893.6 720.4 934 716.133C930.934 732 927.334 751.2 923.467 771.867C921.334 783.6 919.067 795.867 916.667 808.267C905.334 869.467 893.334 935.2 886.4 966.8C880.134 995.6 873.867 1020 869.2 1037.07ZM1270.4 886.4C1267.47 963.333 1263.87 1037.33 1263.87 1037.33C1263.87 1037.33 1029.2 1036.53 902.4 1036.93C906.4 1018.13 912.134 991.067 917.334 964.8C922.534 938.4 927.2 912.533 929.2 896C930 889.2 931.867 878.533 934.4 865.067C939.334 839.333 946.8 803.2 954.934 764.933C958.534 747.867 962.267 730.267 965.867 712.933C975.734 711.867 984.8 710.933 992.4 710.133C1000.13 709.333 1006.4 708.667 1011.2 708.133C1033.73 705.867 1127.07 691.867 1215.07 678.4C1234.53 675.467 1253.73 672.4 1272 669.6C1273.07 693.067 1273.6 719.6 1273.73 749.733C1273.87 782.4 1272.27 835.067 1270.4 886.4Z" fill="#820002"/>
<path d="M778.267 814C758.933 824.933 743.867 835.733 733.067 844.267C715.2 858.533 707.867 867.467 707.2 878.133C707.067 880.267 706.533 887.467 711.2 892C716.8 897.467 726.4 895.733 730.133 894.933C756.4 890.267 776 822.133 778.267 814Z" fill="#067BBB"/>
<path d="M1029.73 774.667C1016.27 791.733 1004.8 805.067 996.4 814.267C981.467 830.8 970.4 841.6 973.334 852C975.067 858.133 980.934 861.867 981.2 862C981.2 862 988.267 866.4 999.2 863.733C1013.6 860.4 1025.2 823.733 1029.73 774.667Z" fill="#067BBB"/>
<path d="M833.466 918.667C814.4 932.533 801.733 946.667 793.6 956.933C773.333 982.8 776.133 993.067 777.066 996C777.466 997.067 779.866 1003.6 786.266 1007.07C786.266 1007.07 793.066 1010.67 802.933 1007.87C816.933 1004.13 828.533 967.733 833.466 918.667Z" fill="#067BBB"/>
<path d="M1104.53 861.733C1087.73 876.4 1075.33 890.133 1066.53 900.667C1054.93 914.8 1048 925.867 1048.13 939.067C1048.27 948.267 1051.6 951.867 1052.67 952.8C1059.6 959.467 1072.4 955.867 1074.4 955.333C1101.47 947.867 1104.27 870 1104.53 861.733Z" fill="#067BBB"/>
<path d="M1251.2 907.867C1233.47 922.533 1220.13 936.133 1211.2 946.267C1192.67 966.933 1189.2 975.6 1191.07 983.333C1192.4 988.8 1196.4 994.667 1202.4 997.467C1202.4 997.467 1210 1000.93 1220.93 997.067C1236.93 991.2 1248.27 955.333 1251.2 907.867Z" fill="#067BBB"/>
<path d="M1251.2 716.133C1234.53 730.933 1222 744.533 1213.2 755.067C1200.27 770.4 1194.67 779.733 1196 790.133C1196.27 792 1197.33 800.4 1203.73 804.533C1203.73 804.533 1210 808.533 1220.8 805.333C1244 798.4 1250.53 723.333 1251.2 716.133Z" fill="#067BBB"/>
</svg>
