<svg width="1840" height="1380" viewBox="0 0 1840 1380" fill="none" xmlns="http://www.w3.org/2000/svg">
<path d="M915.2 652.8C895.467 662.267 866.533 676.4 831.6 693.733C716.267 751.2 688.667 768.533 677.6 775.6C613.2 817.067 580.533 838.667 561.333 880.4C555.067 894 532.533 942.8 553.2 995.067C576.4 1053.6 636.533 1072.27 651.467 1076.93C660.933 1079.87 720.267 1097.33 779.2 1065.47C814.4 1046.53 832.667 1019.07 839.867 1008.13C862.667 973.067 867.067 939.067 869.333 922.933C878.133 859.2 894.133 768.933 915.2 652.8Z" fill="#007A96"/>
<path d="M893.6 295.6C873.6 307.467 842.934 324.533 804 341.467C736.667 370.667 716.267 368.533 659.2 396.667C609.067 421.467 568.534 442.267 551.867 486.267C541.2 514.533 545.334 539.733 546.667 547.733C553.867 588.933 583.067 627.2 622.8 641.867C642.8 649.2 659.067 648.267 684.134 646.667C709.734 645.067 748.534 642.8 780 618.533C800.4 602.933 809.067 583.2 825.867 544.533C842.4 506.267 850.934 474.933 867.2 408C874.534 377.333 883.6 339.333 893.6 295.6Z" fill="#007A96"/>
<path d="M1295.33 314.134C1235.2 364.534 1184 398.4 1147.33 420.534C1145.87 421.467 1080 458.667 1033.73 515.067C1021.47 530 1014.4 541.867 1009.33 559.867C998.8 596.8 1010.4 628.534 1013.73 636.667C1017.47 646.134 1033.6 682.8 1074.4 701.334C1124.4 724 1172 701.334 1178.8 697.867C1230.53 671.867 1248.13 615.467 1263.33 566.934C1268.27 551.334 1273.33 531.334 1282.4 452.267C1288.93 394.534 1292.93 346.934 1295.33 314.134Z" fill="#007A96"/>
<path d="M669.2 422.667C650.4 411.333 613.2 439.6 594.667 461.6C579.467 479.867 574.667 496.8 573.333 501.067C571.467 507.067 570.4 513.733 569.867 522.667C568.533 548.667 567.333 557.733 590.667 581.2C614 604.533 650.4 581.2 644 555.2C637.467 529.2 618 489.467 636.267 471.6C651.867 456.267 677.067 454.933 678.533 439.2C679.2 432.667 674.667 425.867 669.2 422.667Z" fill="white"/>
<path d="M665.2 827.734C633.867 826 607.867 863.6 599.2 876C588.534 891.334 584.4 904.4 582.4 910.267C582.4 910.267 578.667 922.4 578 934.4C576.934 952.267 582.934 995.334 609.067 1002.4C624.934 1006.67 640 995.734 643.867 992.667C656.267 982.8 662.934 966.934 662.134 952.667C661.067 936 651.734 934.134 649.867 913.867C649.2 905.867 648 892.8 655.6 882C663.867 870.4 674 873.2 682 860.267C682.934 858.8 690.934 845.467 685.467 836.267C680.667 828.267 668.4 827.867 665.2 827.734Z" fill="white"/>
<path d="M1077.87 515.6C1063.6 516.4 1054 535.067 1045.87 550.8C1042 558.4 1037.33 567.733 1034.93 581.2C1033.87 587.2 1032.4 599.733 1035.47 615.067C1038.13 628 1040.53 640.533 1051.47 648.8C1053.47 650.4 1060.93 655.6 1071.2 655.6C1072.27 655.6 1090 655.333 1094.8 644.267C1097.6 637.867 1094.8 631.2 1092.53 626C1086.8 612.667 1076.93 612.267 1072.53 601.733C1069.07 593.467 1071.47 585.333 1073.87 577.067C1079.47 558.133 1091.2 552.667 1094.4 533.6C1094.93 530.267 1095.33 526 1092.93 522.267C1089.87 517.067 1082.8 515.333 1077.87 515.6Z" fill="white"/>
</svg>
